inDegrees=no
num_controls=7
num_derivatives=13
num_iterations=129
num_multipliers=7
num_parameters=0
num_slacks=7
num_states=26
objective=5.442443
objective_accelerations=0.537508
objective_balance=0.099175
objective_effort=0.412673
objective_height=4.310944
objective_ligament=0.082143
solver_duration=1535.120985
status=Solve_Succeeded
success=true
DataType=double
version=3
OpenSimVersion=4.4-2022-07-23-0e9fedc
endheader
time	/jointset/ground_pelvis/pelvis_tilt/value	/jointset/ground_pelvis/pelvis_tx/value	/jointset/ground_pelvis/pelvis_ty/value	/jointset/hip_l/hip_flexion_l/value	/jointset/hip_l/hip_adduction_l/value	/jointset/hip_l/hip_rotation_l/value	/jointset/back/lumbar_extension/value	/jointset/patellofemoral_l/patellar_flexion_l/value	/jointset/knee_l/knee_flexion_l/value	/jointset/knee_l/knee_adduction_l/value	/jointset/knee_l/knee_rotation_l/value	/jointset/ankle_l/ankle_angle_l/value	/jointset/subtalar_l/subtalar_angle_l/value	/jointset/ground_pelvis/pelvis_tilt/speed	/jointset/ground_pelvis/pelvis_tx/speed	/jointset/ground_pelvis/pelvis_ty/speed	/jointset/hip_l/hip_flexion_l/speed	/jointset/hip_l/hip_adduction_l/speed	/jointset/hip_l/hip_rotation_l/speed	/jointset/back/lumbar_extension/speed	/jointset/patellofemoral_l/patellar_flexion_l/speed	/jointset/knee_l/knee_flexion_l/speed	/jointset/knee_l/knee_adduction_l/speed	/jointset/knee_l/knee_rotation_l/speed	/jointset/ankle_l/ankle_angle_l/speed	/jointset/subtalar_l/subtalar_angle_l/speed	/forceset/tau_hip_flexion_l	/forceset/tau_hip_adduction_l	/forceset/tau_hip_rotation_l	/forceset/tau_knee_flexion_l	/forceset/tau_ankle_angle_l	/forceset/tau_subtalar_angle_l	/forceset/tau_lumbar_extension	lambda_cid13_p0	lambda_cid13_p1	lambda_cid13_p2	lambda_cid13_p3	lambda_cid13_p4	lambda_cid13_p5	lambda_cid14_p0	/jointset/ground_pelvis/pelvis_tilt/accel	/jointset/ground_pelvis/pelvis_tx/accel	/jointset/ground_pelvis/pelvis_ty/accel	/jointset/hip_l/hip_flexion_l/accel	/jointset/hip_l/hip_adduction_l/accel	/jointset/hip_l/hip_rotation_l/accel	/jointset/back/lumbar_extension/accel	/jointset/patellofemoral_l/patellar_flexion_l/accel	/jointset/knee_l/knee_flexion_l/accel	/jointset/knee_l/knee_adduction_l/accel	/jointset/knee_l/knee_rotation_l/accel	/jointset/ankle_l/ankle_angle_l/accel	/jointset/subtalar_l/subtalar_angle_l/accel	gamma_cid13_p0	gamma_cid13_p1	gamma_cid13_p2	gamma_cid13_p3	gamma_cid13_p4	gamma_cid13_p5	gamma_cid14_p0
1.5	-0.436564327703192	-0.06067349518757402	0.7764944800856264	1.205100920194885	-0.308681844200498	-0.06116683080351934	-0.3388818543983119	0.6442006848469199	0.6442006848468854	-0.1734199878917502	0.1745060948814189	0.0399037615295585	-0.04688422412820764	0.7084072149723251	0.2408282420918424	0.4341329737146806	-2.174186883761791	0.04154476085635155	-0.5691078747193644	0.5710398830481203	-1.628435548881173	-1.628435548881119	0.005344815251366263	-9.117270253330742e-05	-0.2491901284184632	0.01150231748617062	-0.2446685035195354	0.02424630506403269	-0.01947687767054356	-0.1864721353674521	0.1176372426043159	0.04392862763553478	0.221193965051012	-1.1645166344447	-21.93539880832695	6.591189430112729	-2.670342927915655	-611.9956598606077	-59.11565668048889	-30.8212747166637	0.5570851178728573	0.5862819189677491	-0.2517769264462279	-1.426770854669167	0.5145528542517891	-0.2742387748022915	1.638073981632628	-1.012545559128557	-1.012545559128552	0.005733139650721066	-0.03190655268435311	-0.08406293345216787	0.4985839435085813	4.606606587905085e-08	9.94950876612054e-07	-2.854253970212055e-07	1.161695765330119e-07	1.657187413848649e-07	1.348000238356372e-07	1.549282346493868e-07
1.51	-0.4294528019572902	-0.05823608326614526	0.7808224076382168	1.183289801717019	-0.3082414801028917	-0.06687190950840248	-0.3330908385594915	0.6278679128291016	0.6278679128290915	-0.1733674919262002	0.1745051993780609	0.03740789621834378	-0.04674513705671158	0.7138016157623204	0.2466280813340331	0.431368412337011	-2.187739683059204	0.04653566082146041	-0.5718303129875086	0.5870916531010103	-1.637889418781943	-1.637889418781913	0.005150214291292487	-8.916489230086287e-05	-0.2499321894353493	0.01632501909627638	-0.2369473068578755	0.02327539145499173	-0.01942231647669357	-0.1855500154582626	0.118528214707763	0.04314947916899099	0.2152297874176712	-0.6787763620634473	-21.78284520761479	6.681984265376821	-2.761859712019135	-608.0772547137907	-59.41846431848869	-31.6965498135456	0.5161807681570697	0.5729518233857762	-0.3013785294060817	-1.274951536948803	0.4923974846543238	-0.2594446890658969	1.577983774901864	-0.8774245943742283	-0.877424594377838	-0.03250628173846779	0.01617311059106272	-0.06165364818569247	0.4754614351670154	4.106065795696103e-08	1.061580348238362e-06	-2.786949782637136e-07	1.253821819410199e-07	1.747615583422256e-07	1.543921696719748e-07	1.591792388989741e-07
1.52	-0.422290219561768	-0.0557414495729863	0.7851201730198346	1.161352071832247	-0.3077509992222295	-0.07260185226321177	-0.327141453968585	0.6114474787345165	0.6114474787345195	-0.1733170318838487	0.1745043076853364	0.0349061351044854	-0.04655755333603335	0.7186185448960752	0.2522725964378821	0.4281005395201994	-2.199509165143475	0.05156811746711763	-0.5740806847054656	0.6027136334652838	-1.64596796423563	-1.645967964235625	0.004937630615139335	-9.041057350567425e-05	-0.2503692889473905	0.02120164732259964	-0.229226110196204	0.02230447784597139	-0.0193677552829646	-0.1846278955490488	0.1194191868112193	0.04237033070246953	0.2092656097843336	-0.2006527457357329	-21.63112656364982	6.775389377333756	-2.840319229387811	-604.2806753233407	-59.77174312975695	-32.54976234503788	0.4415907866247978	0.5552170912993879	-0.3524392142746109	-1.070107412040762	0.5228641903614731	-0.1798254647648035	1.552116043909369	-0.7374806697118622	-0.7374806697118651	0.002136596434850313	-0.03255725097181096	-0.0230706324832301	0.5093692667520742	3.560397770937058e-08	1.124280606109866e-06	-2.732172131971046e-07	1.337495824237126e-07	1.838021726717699e-07	1.738855780254345e-07	1.628485450708673e-07
1.53	-0.4150823634999991	-0.05319122482097111	0.7893827720434619	1.139305627773562	-0.3072100856256953	-0.07835204404666979	-0.3210382491729288	0.594953207361376	0.5949532073613687	-0.173268868783621	0.17450351089817	0.0324014936010502	-0.0463210370445469	0.7228504663076394	0.2577376531460221	0.4243372633336474	-2.209465192668214	0.05661515251920377	-0.5758739378296124	0.6178347123320491	-1.652646527187037	-1.652646527187031	0.004686157976554824	-7.213646166758775e-05	-0.250510089157907	0.0261041090029268	-0.2213298976575106	0.02115634150047758	-0.01935351841622455	-0.1837555732535913	0.1203710999114895	0.04147086168416084	0.2031106975290378	0.2962506050372271	-21.43146569336918	6.862321613238307	-2.883157889737051	-600.4199684571178	-60.06203811826988	-33.37719815633795	0.3986717894105901	0.5369738811417337	-0.4005325657797192	-0.9111703593505709	0.4955856126000913	-0.1663379521393973	1.478211808007572	-0.5971101336703591	-0.5971101336702331	-0.03992000485743381	0.01864978775069519	-0.002234046087864084	0.4808998084964428	2.966782061593573e-08	1.182806074366893e-06	-2.690703926770585e-07	1.412189526732578e-07	1.928404467092593e-07	1.932740778033364e-07	1.658997970352106e-07
